<?xml version="1.0" encoding="UTF-8"?>
<svg xmlns="http://www.w3.org/2000/svg" xmlns:xlink="http://www.w3.org/1999/xlink" width="190px" height="130px" viewBox="0 0 190 130" version="1.1">
<g id="surface1">
<path style=" stroke:none;fill-rule:nonzero;fill:rgb(64.313725%,20.784314%,94.117647%);fill-opacity:1;" d="M 43.390625 51.546875 L 31.730469 45.414062 L 20.09375 51.546875 L 20.09375 45.414062 L 31.730469 39.28125 L 43.390625 45.414062 Z M 43.390625 51.546875 "/>
<path style=" stroke:none;fill-rule:nonzero;fill:rgb(0%,0%,0%);fill-opacity:1;" d="M 20.09375 56.703125 L 26.195312 56.703125 L 26.195312 70.222656 C 26.195312 73.710938 29.046875 75.421875 31.753906 75.421875 C 34.460938 75.421875 37.3125 73.667969 37.3125 70.179688 L 37.3125 56.703125 L 43.414062 56.703125 L 43.414062 70.546875 C 43.414062 73.773438 42.296875 76.246094 40.089844 77.957031 C 37.882812 79.667969 35.101562 80.492188 31.707031 80.492188 C 28.332031 80.492188 25.554688 79.667969 23.394531 77.957031 C 21.234375 76.246094 20.117188 73.863281 20.117188 70.699219 C 20.09375 70.699219 20.09375 56.703125 20.09375 56.703125 Z M 96.140625 73.515625 C 94.289062 75.011719 92.199219 75.746094 89.796875 75.746094 C 85.429688 75.746094 82.484375 73.472656 82.152344 69.941406 L 101.863281 69.941406 C 101.863281 69.941406 102.007812 68.792969 102.007812 67.730469 C 102.007812 64.414062 100.84375 61.664062 98.46875 59.410156 C 96.140625 57.15625 93.125 56.050781 89.441406 56.050781 C 85.570312 56.050781 82.390625 57.15625 79.871094 59.410156 C 77.402344 61.664062 76.140625 64.609375 76.140625 68.292969 L 76.140625 68.464844 C 76.140625 72.105469 77.402344 75.011719 79.871094 77.15625 C 82.339844 79.320312 85.617188 80.425781 89.609375 80.425781 C 94.238281 80.425781 97.921875 78.757812 100.699219 75.875 C 100.675781 75.898438 96.140625 73.515625 96.140625 73.515625 Z M 84.550781 62.226562 C 85.902344 61.25 87.566406 60.753906 89.441406 60.753906 C 91.199219 60.753906 92.671875 61.25 93.929688 62.269531 C 95.140625 63.203125 95.785156 64.328125 95.832031 65.628906 L 82.292969 65.628906 C 82.484375 64.285156 83.242188 63.160156 84.550781 62.226562 Z M 157.558594 83.566406 C 155.085938 88.898438 152.5 90.71875 148.507812 90.71875 L 145.753906 90.71875 L 145.753906 85.777344 L 147.984375 85.777344 C 149.363281 85.777344 150.621094 85.300781 151.832031 82.765625 L 153.046875 80.210938 L 142.59375 56.703125 L 148.792969 56.703125 L 156.203125 73.625 L 163.828125 56.703125 L 170.050781 56.703125 Z M 67.140625 47.816406 L 67.140625 58.804688 C 65.144531 57.179688 62.035156 56.203125 59.019531 56.203125 C 55.433594 56.203125 52.417969 57.351562 49.945312 59.691406 C 47.523438 61.988281 46.3125 64.847656 46.3125 68.292969 C 46.3125 71.738281 47.523438 74.597656 49.945312 76.9375 C 52.417969 79.234375 55.433594 80.382812 59.019531 80.382812 C 63.152344 80.382812 65.765625 78.910156 67.140625 77.738281 L 67.140625 79.886719 L 73.199219 79.886719 L 73.199219 47.816406 Z M 65.3125 73.363281 C 63.839844 74.707031 61.988281 75.378906 59.828125 75.378906 C 57.664062 75.378906 55.882812 74.683594 54.433594 73.363281 C 53.035156 72.019531 52.320312 70.328125 52.320312 68.292969 C 52.320312 66.277344 53.035156 64.566406 54.433594 63.222656 C 55.90625 61.878906 57.664062 61.207031 59.828125 61.207031 C 61.988281 61.207031 63.863281 61.902344 65.3125 63.222656 C 66.832031 64.566406 67.59375 66.257812 67.59375 68.292969 C 67.59375 70.328125 66.832031 72.019531 65.3125 73.363281 Z M 133.214844 56.246094 C 128.605469 56.246094 126.230469 57.980469 124.59375 59.671875 C 123.925781 58.523438 122.097656 56.246094 117.777344 56.246094 C 114.140625 56.246094 111.980469 57.914062 110.914062 59.128906 L 110.914062 56.722656 L 104.902344 56.722656 L 104.902344 79.90625 L 110.914062 79.90625 L 110.914062 66.558594 C 110.914062 63.441406 113.027344 61.1875 115.851562 61.1875 C 118.726562 61.1875 120.390625 63.160156 120.390625 66.34375 L 120.390625 79.90625 L 126.398438 79.90625 L 126.398438 66.558594 C 126.398438 63.398438 128.464844 61.1875 131.433594 61.1875 C 134.304688 61.1875 135.96875 63.160156 135.96875 66.34375 L 135.96875 79.90625 L 142.023438 79.90625 L 142.023438 65.5625 C 142.023438 59.496094 138.460938 56.246094 133.214844 56.246094 Z M 133.214844 56.246094 "/>
</g>
</svg>
