<?xml version="1.0" encoding="UTF-8"?>
<svg xmlns="http://www.w3.org/2000/svg" xmlns:xlink="http://www.w3.org/1999/xlink" width="28px" height="28px" viewBox="0 0 28 28" version="1.1">
<g id="surface1">
<path style=" stroke:none;fill-rule:nonzero;fill:rgb(0%,0%,0%);fill-opacity:1;" d="M 20.832031 27.816406 L 17.917969 27.816406 C 15.582031 27.816406 13.679688 25.914062 13.679688 23.578125 L 13.679688 21.929688 C 13.679688 21.589844 13.953125 21.316406 14.292969 21.316406 C 14.632812 21.316406 14.910156 21.589844 14.910156 21.929688 L 14.910156 23.578125 C 14.910156 25.234375 16.257812 26.585938 17.917969 26.585938 L 20.832031 26.585938 C 23.101562 26.585938 24.945312 24.738281 24.945312 22.472656 L 24.945312 14.914062 C 24.945312 14.15625 24.332031 13.542969 23.574219 13.542969 L 17.429688 13.542969 C 16.554688 13.542969 15.75 13.988281 15.289062 14.734375 C 15.109375 15.023438 14.730469 15.113281 14.441406 14.933594 C 14.152344 14.753906 14.0625 14.375 14.242188 14.085938 C 14.933594 12.976562 16.125 12.3125 17.429688 12.3125 L 23.574219 12.3125 C 25.007812 12.3125 26.175781 13.480469 26.175781 14.914062 L 26.175781 22.472656 C 26.175781 25.417969 23.78125 27.816406 20.832031 27.816406 Z M 20.832031 27.816406 "/>
<path style=" stroke:none;fill-rule:nonzero;fill:rgb(0%,0%,0%);fill-opacity:1;" d="M 14.292969 22.542969 L 13.765625 22.542969 C 12.78125 22.542969 11.90625 22.03125 11.429688 21.167969 C 10.953125 20.304688 10.980469 19.292969 11.503906 18.457031 L 14.246094 14.085938 C 14.425781 13.796875 14.808594 13.710938 15.09375 13.890625 C 15.382812 14.070312 15.46875 14.453125 15.289062 14.738281 L 12.546875 19.113281 C 12.265625 19.5625 12.25 20.109375 12.507812 20.574219 C 12.761719 21.039062 13.234375 21.316406 13.765625 21.316406 L 14.292969 21.316406 C 14.742188 21.316406 15.824219 21.199219 16.164062 20.121094 C 16.265625 19.796875 16.613281 19.617188 16.933594 19.71875 C 17.257812 19.824219 17.4375 20.167969 17.335938 20.492188 C 16.929688 21.777344 15.792969 22.542969 14.292969 22.542969 Z M 14.292969 22.542969 "/>
<path style=" stroke:none;fill-rule:nonzero;fill:rgb(0%,0%,0%);fill-opacity:1;" d="M 23.636719 13.542969 L 17.355469 13.542969 C 17.015625 13.542969 16.742188 13.265625 16.742188 12.929688 L 16.742188 9.367188 C 16.742188 9.027344 17.015625 8.753906 17.355469 8.753906 L 23.636719 8.753906 C 23.972656 8.753906 24.25 9.027344 24.25 9.367188 L 24.25 12.929688 C 24.25 13.269531 23.972656 13.542969 23.636719 13.542969 Z M 17.96875 12.3125 L 23.019531 12.3125 L 23.019531 9.984375 L 17.96875 9.984375 Z M 17.96875 12.3125 "/>
<path style=" stroke:none;fill-rule:nonzero;fill:rgb(0%,0%,0%);fill-opacity:1;" d="M 9.578125 26.722656 C 9.148438 26.722656 8.714844 26.65625 8.289062 26.519531 L 5.511719 25.632812 C 2.703125 24.738281 1.152344 21.722656 2.046875 18.917969 L 4.347656 11.71875 C 4.78125 10.351562 6.25 9.597656 7.613281 10.03125 L 13.46875 11.902344 C 14.394531 12.199219 15.164062 12.832031 15.625 13.691406 C 15.789062 13.988281 15.675781 14.363281 15.378906 14.523438 C 15.078125 14.683594 14.707031 14.574219 14.546875 14.277344 C 14.234375 13.699219 13.71875 13.273438 13.09375 13.074219 L 7.242188 11.203125 C 6.890625 11.09375 6.519531 11.121094 6.195312 11.292969 C 5.871094 11.457031 5.628906 11.742188 5.519531 12.09375 L 3.21875 19.292969 C 2.527344 21.453125 3.722656 23.773438 5.882812 24.460938 L 8.664062 25.351562 C 10.242188 25.855469 11.941406 24.980469 12.445312 23.398438 L 13.050781 21.714844 C 13.167969 21.398438 13.519531 21.230469 13.839844 21.347656 C 14.15625 21.460938 14.324219 21.816406 14.207031 22.132812 L 13.609375 23.796875 C 13.039062 25.574219 11.371094 26.722656 9.578125 26.722656 Z M 9.578125 26.722656 "/>
<path style=" stroke:none;fill-rule:nonzero;fill:rgb(0%,0%,0%);fill-opacity:1;" d="M 13.355469 13.125 C 13.292969 13.125 13.226562 13.117188 13.167969 13.097656 L 7.183594 11.1875 C 7.03125 11.136719 6.902344 11.027344 6.824219 10.882812 C 6.75 10.738281 6.738281 10.566406 6.785156 10.414062 L 7.871094 7.023438 C 7.972656 6.699219 8.320312 6.519531 8.640625 6.625 L 14.625 8.535156 C 14.949219 8.636719 15.125 8.984375 15.023438 9.308594 L 13.941406 12.699219 C 13.890625 12.855469 13.78125 12.984375 13.636719 13.058594 C 13.546875 13.101562 13.453125 13.125 13.355469 13.125 Z M 8.144531 10.203125 L 12.957031 11.738281 L 13.664062 9.519531 L 8.855469 7.980469 Z M 8.144531 10.203125 "/>
<path style=" stroke:none;fill-rule:nonzero;fill:rgb(0%,0%,0%);fill-opacity:1;" d="M 20.753906 9.984375 C 20.53125 9.984375 20.316406 9.863281 20.207031 9.648438 L 16.261719 1.972656 L 11.863281 8.480469 C 11.671875 8.761719 11.289062 8.835938 11.007812 8.644531 C 10.726562 8.453125 10.652344 8.070312 10.84375 7.789062 L 15.824219 0.425781 C 15.945312 0.246094 16.152344 0.140625 16.371094 0.15625 C 16.585938 0.167969 16.78125 0.292969 16.878906 0.488281 L 21.300781 9.085938 C 21.457031 9.390625 21.335938 9.761719 21.035156 9.914062 C 20.945312 9.960938 20.847656 9.984375 20.753906 9.984375 Z M 20.753906 9.984375 "/>
</g>
</svg>
