<?xml version="1.0" encoding="UTF-8"?>
<svg xmlns="http://www.w3.org/2000/svg" xmlns:xlink="http://www.w3.org/1999/xlink" width="28px" height="24px" viewBox="0 0 28 24" version="1.1">
<g id="surface1">
<path style="fill:none;stroke-width:1.5;stroke-linecap:round;stroke-linejoin:round;stroke:rgb(0%,0%,0%);stroke-opacity:1;stroke-miterlimit:4;" d="M 7.399554 7 L 4.600446 7 C 4.268973 7 4.001116 7.269531 4.001116 7.601562 L 4.001116 16.398438 C 4.001116 16.730469 4.268973 17 4.600446 17 L 7.399554 17 C 7.731027 17 7.998884 16.730469 7.998884 16.398438 L 7.998884 7.601562 C 7.998884 7.269531 7.731027 7 7.399554 7 Z M 7.399554 7 " transform="matrix(1.166667,0,0,1,0,0)"/>
<path style="fill:none;stroke-width:1.5;stroke-linecap:round;stroke-linejoin:round;stroke:rgb(0%,0%,0%);stroke-opacity:1;stroke-miterlimit:4;" d="M 19.399554 7 L 16.600446 7 C 16.268973 7 16.001116 7.269531 16.001116 7.601562 L 16.001116 16.398438 C 16.001116 16.730469 16.268973 17 16.600446 17 L 19.399554 17 C 19.731027 17 19.998884 16.730469 19.998884 16.398438 L 19.998884 7.601562 C 19.998884 7.269531 19.731027 7 19.399554 7 Z M 19.399554 7 " transform="matrix(1.166667,0,0,1,0,0)"/>
<path style="fill:none;stroke-width:1.5;stroke-linecap:round;stroke-linejoin:round;stroke:rgb(0%,0%,0%);stroke-opacity:1;stroke-miterlimit:4;" d="M 1.001116 14.398438 L 1.001116 9.601562 C 1.001116 9.269531 1.268973 9 1.600446 9 L 3.398437 9 C 3.729911 9 4.001116 9.269531 4.001116 9.601562 L 4.001116 14.398438 C 4.001116 14.730469 3.729911 15 3.398437 15 L 1.600446 15 C 1.268973 15 1.001116 14.730469 1.001116 14.398438 Z M 1.001116 14.398438 " transform="matrix(1.166667,0,0,1,0,0)"/>
<path style="fill:none;stroke-width:1.5;stroke-linecap:round;stroke-linejoin:round;stroke:rgb(0%,0%,0%);stroke-opacity:1;stroke-miterlimit:4;" d="M 22.998884 14.398438 L 22.998884 9.601562 C 22.998884 9.269531 22.731027 9 22.399554 9 L 20.601562 9 C 20.270089 9 19.998884 9.269531 19.998884 9.601562 L 19.998884 14.398438 C 19.998884 14.730469 20.270089 15 20.601562 15 L 22.399554 15 C 22.731027 15 22.998884 14.730469 22.998884 14.398438 Z M 22.998884 14.398438 " transform="matrix(1.166667,0,0,1,0,0)"/>
<path style="fill:none;stroke-width:1.5;stroke-linecap:round;stroke-linejoin:round;stroke:rgb(0%,0%,0%);stroke-opacity:1;stroke-miterlimit:4;" d="M 7.998884 12 L 16.001116 12 " transform="matrix(1.166667,0,0,1,0,0)"/>
</g>
</svg>
