<?xml version="1.0" encoding="UTF-8"?>
<svg xmlns="http://www.w3.org/2000/svg" xmlns:xlink="http://www.w3.org/1999/xlink" width="24px" height="24px" viewBox="0 0 24 24" version="1.1">
<g id="surface1">
<path style=" stroke:none;fill-rule:nonzero;fill:rgb(0.392157%,0%,0.784314%);fill-opacity:1;" d="M 17.425781 6.957031 C 17.425781 7.855469 16.699219 8.578125 15.804688 8.578125 C 14.910156 8.578125 14.183594 7.855469 14.183594 6.957031 C 14.183594 6.0625 14.910156 5.335938 15.804688 5.335938 C 16.699219 5.335938 17.425781 6.0625 17.425781 6.957031 Z M 17.425781 6.957031 "/>
<path style=" stroke:none;fill-rule:nonzero;fill:rgb(0.392157%,0%,0.784314%);fill-opacity:1;" d="M 20.191406 9.550781 C 18.78125 10.109375 17.207031 10.347656 15.722656 9.992188 C 15.695312 9.773438 15.621094 9.554688 15.488281 9.335938 C 15.394531 9.1875 15.265625 9.050781 15.117188 8.933594 C 15.042969 8.851562 14.945312 8.789062 14.824219 8.746094 C 14.566406 8.609375 14.277344 8.535156 13.992188 8.539062 C 12.082031 8.117188 10.144531 7.894531 8.183594 7.835938 C 7.183594 7.808594 7.183594 9.363281 8.183594 9.390625 C 9.457031 9.429688 10.710938 9.539062 11.957031 9.734375 C 10.992188 10.40625 9.988281 11.007812 8.9375 11.539062 C 6.203125 12.3125 3.472656 13.085938 0.738281 13.859375 C -0.457031 14.199219 -0.101562 16.109375 1.105469 15.769531 C 3.167969 15.183594 5.230469 14.601562 7.296875 14.015625 C 7.308594 14.050781 7.324219 14.082031 7.335938 14.113281 C 5.652344 15.324219 3.785156 16.628906 2.386719 17.695312 C 1.390625 18.457031 2.605469 19.972656 3.601562 19.210938 C 5.308594 17.910156 7.714844 16.257812 9.628906 14.847656 C 9.652344 14.839844 9.675781 14.828125 9.699219 14.820312 C 11.585938 13.964844 13.328125 12.890625 14.957031 11.609375 C 15.019531 11.558594 15.082031 11.503906 15.140625 11.445312 C 16.917969 11.953125 18.910156 11.71875 20.605469 11.046875 C 21.523438 10.683594 21.125 9.179688 20.191406 9.550781 Z M 20.191406 9.550781 "/>
<path style=" stroke:none;fill-rule:nonzero;fill:rgb(0.392157%,0%,0.784314%);fill-opacity:1;" d="M 24 5.867188 C 24 6.578125 23.421875 7.15625 22.710938 7.15625 C 22 7.15625 21.425781 6.578125 21.425781 5.867188 C 21.425781 5.15625 22 4.582031 22.710938 4.582031 C 23.421875 4.582031 24 5.15625 24 5.867188 Z M 24 5.867188 "/>
</g>
</svg>
