<?xml version="1.0" encoding="UTF-8"?>
<svg xmlns="http://www.w3.org/2000/svg" xmlns:xlink="http://www.w3.org/1999/xlink" width="24px" height="24px" viewBox="0 0 24 24" version="1.1">
<g id="surface1">
<path style=" stroke:none;fill-rule:nonzero;fill:rgb(7.45098%,66.666667%,32.156863%);fill-opacity:1;" d="M 24 12 C 24 18.628906 18.628906 24 12 24 C 5.371094 24 0 18.628906 0 12 C 0 5.371094 5.371094 0 12 0 C 18.628906 0 24 5.371094 24 12 Z M 24 12 "/>
<path style=" stroke:none;fill-rule:nonzero;fill:rgb(100%,100%,100%);fill-opacity:1;" d="M 15.207031 10.535156 C 14.449219 7.1875 12.660156 6.089844 12.464844 5.667969 C 12.253906 5.371094 12.039062 4.84375 12.039062 4.84375 C 12.039062 4.835938 12.03125 4.820312 12.023438 4.804688 C 12.003906 5.101562 11.992188 5.214844 11.710938 5.515625 C 11.277344 5.855469 9.050781 7.722656 8.871094 11.523438 C 8.699219 15.066406 11.429688 17.179688 11.800781 17.449219 L 11.839844 17.480469 L 11.839844 17.476562 C 11.84375 17.496094 11.957031 18.320312 12.039062 19.195312 L 12.328125 19.195312 C 12.394531 18.578125 12.496094 17.960938 12.632812 17.355469 L 12.65625 17.339844 C 12.820312 17.222656 12.980469 17.09375 13.128906 16.953125 L 13.144531 16.9375 C 13.929688 16.214844 15.339844 14.539062 15.324219 11.863281 C 15.324219 11.417969 15.285156 10.972656 15.207031 10.535156 Z M 12.007812 15.449219 C 12.007812 15.449219 12.007812 10.476562 12.171875 10.476562 C 12.300781 10.476562 12.464844 16.890625 12.464844 16.890625 C 12.238281 16.863281 12.007812 15.835938 12.007812 15.449219 Z M 12.007812 15.449219 "/>
</g>
</svg>
